# xmcd
# 
# Track frame offsets:
#     150
#     32617
#     43910
#     64245
#     77687
#     96590
#     110552
#     125227
#     159772
#     175885
#     186470
#     202107
#     212867
#     231467
#     244985
#     258040
# 
# Disc length: 3648
# 
# Revision: 4
# Processed by: cddbd v1.5.2PL0 Copyright (c) Steve Scherf et al.
# Submitted via: fre:ac v1.0.17
# 
DISCID=f20e3e10
DTITLE=Various Artist - Soul Collection Vol. 1
DYEAR=1993
DGENRE=Soul
TTITLE0=The Temptations - The Temptations
TTITLE1=Ike and Tina Turner - Raise Your Hand
TTITLE2=De Barge - Everytime I Think Of You
TTITLE3=Ben E King - Spanish Harlem
TTITLE4=The Manhattans - Sweet Talk
TTITLE5=Aaron Neville - Tell It Like It Is
TTITLE6=The Dells - Always Together
TTITLE7=Chuck Borwn and The Soul Searchers - Bustin' Loose (Part 1)
TTITLE8=Harold Melvin and The Bluenotes - Wake Up Everybody
TTITLE9=Soul Survivors - Expressway To Your Heart
TTITLE10=Al Wilson - Show And Tell
TTITLE11=Sam and Dave - Sweet Soul Music
TTITLE12=Jerry Butler - Ain't Understanding Mellow
TTITLE13=Eddie Floyd - Knock On Wood
TTITLE14=Friends Of Distinction - Grazing In The Grass
TTITLE15=Dobie Gray - Drift Away
EXTD=
EXTT0=
EXTT1=
EXTT2=
EXTT3=
EXTT4=
EXTT5=
EXTT6=
EXTT7=
EXTT8=
EXTT9=
EXTT10=
EXTT11=
EXTT12=
EXTT13=
EXTT14=
EXTT15=
PLAYORDER=
